<svg xmlns="http://www.w3.org/2000/svg" width="403.315" height="128.525" viewBox="0 0 403.315 128.525">
  <g id="Group_772" data-name="Group 772" transform="translate(-1090.685 -2826)">
    <g id="Group_715" data-name="Group 715" transform="translate(2085 -4272)">
      <text id="Software_Developer" data-name="Software
Developer" transform="translate(-803 7153)" fill="#222" font-size="44" font-family="DMSans-Medium, DM Sans" font-weight="500"><tspan x="0" y="0">Software</tspan><tspan x="0" y="47">Developer</tspan></text>
    </g>
    <g id="Group_722" data-name="Group 722" transform="translate(848.063 2812.38)">
      <g id="Group_436" data-name="Group 436" transform="translate(244.139 13.62)">
        <g id="Group_423" data-name="Group 423" transform="translate(17.187 79.127)">
          <path id="Path_616" data-name="Path 616" d="M251.861,52.706a46.342,46.342,0,0,0,8.4,20.109V52.706Z" transform="translate(-251.861 -52.706)" fill="#f7a902"/>
          <path id="Path_617" data-name="Path 617" d="M256.012,52.706V72.815a46.3,46.3,0,0,0,8.405-20.109Z" transform="translate(-247.609 -52.706)" fill="#f7a902"/>
        </g>
        <g id="Group_424" data-name="Group 424" transform="translate(19.212 78.931)">
          <path id="Path_618" data-name="Path 618" d="M252.861,52.609a39.121,39.121,0,0,0,6.379,13.6v-13.6Z" transform="translate(-252.861 -52.609)" fill="#ffca00"/>
          <path id="Path_619" data-name="Path 619" d="M256.012,52.609v13.6a39.1,39.1,0,0,0,6.381-13.6Z" transform="translate(-249.633 -52.609)" fill="#fa0"/>
        </g>
        <g id="Group_427" data-name="Group 427" transform="translate(0 53.492)">
          <g id="Group_425" data-name="Group 425" transform="translate(37.751)">
            <path id="Path_620" data-name="Path 620" d="M262.018,56.934,275.474,74.3V50.443l-13.455-10.4Z" transform="translate(-262.018 -40.043)" fill="#ff4140"/>
            <path id="Path_621" data-name="Path 621" d="M262.018,43.542V53.35l8.988,11.6V50.488Z" transform="translate(-262.018 -36.458)" fill="#cc2221"/>
          </g>
          <g id="Group_426" data-name="Group 426">
            <path id="Path_622" data-name="Path 622" d="M256.83,56.934,243.371,74.3V50.443l13.459-10.4Z" transform="translate(-243.371 -40.043)" fill="#f7a902"/>
            <path id="Path_623" data-name="Path 623" d="M254.568,43.542V53.35l-8.989,11.6V50.488Z" transform="translate(-241.109 -36.458)" fill="#eca203"/>
          </g>
        </g>
        <g id="Group_428" data-name="Group 428" transform="translate(8.17)">
          <path id="Path_624" data-name="Path 624" d="M251.714,20.46q.4-.723.814-1.4Q252.118,19.738,251.714,20.46Z" transform="translate(-242.995 -8.052)" fill="#ffca00"/>
          <path id="Path_625" data-name="Path 625" d="M249.761,25.814c.611-1.454,1.261-2.854,1.927-4.189C251.022,22.959,250.372,24.36,249.761,25.814Z" transform="translate(-244.995 -5.419)" fill="#ffca00"/>
          <path id="Path_626" data-name="Path 626" d="M252.317,19.69c.4-.662.806-1.3,1.2-1.913C253.123,18.388,252.722,19.028,252.317,19.69Z" transform="translate(-242.377 -9.361)" fill="#f12a3f"/>
          <path id="Path_627" data-name="Path 627" d="M249.068,27.3q.659-1.855,1.4-3.6Q249.73,25.44,249.068,27.3Z" transform="translate(-245.705 -3.3)" fill="#fff"/>
          <path id="Path_628" data-name="Path 628" d="M256.939,14.72c1.152,1.443,2.723,3.545,4.431,6.189C259.662,18.265,258.091,16.163,256.939,14.72Z" transform="translate(-237.642 -12.493)" fill="#db2639"/>
          <path id="Path_629" data-name="Path 629" d="M259.128,17.777c.389.611.792,1.251,1.2,1.913C259.92,19.028,259.517,18.388,259.128,17.777Z" transform="translate(-235.399 -9.361)" fill="#db2639"/>
          <path id="Path_630" data-name="Path 630" d="M264.753,40.153c-.229,2.01-.52,3.956-.862,5.83C264.233,44.109,264.525,42.163,264.753,40.153Z" transform="translate(-230.52 13.562)" fill="#ffca00"/>
          <path id="Path_631" data-name="Path 631" d="M248.752,27.349c.207-.636.417-1.259.64-1.875C249.169,26.089,248.958,26.713,248.752,27.349Z" transform="translate(-246.029 -1.476)" fill="#ffca00"/>
          <path id="Path_632" data-name="Path 632" d="M249.958,49.508c-.225-.6-.439-1.219-.65-1.848C249.519,48.29,249.733,48.905,249.958,49.508Z" transform="translate(-245.46 21.252)" fill="#ffca00"/>
          <path id="Path_633" data-name="Path 633" d="M261.325,21.625c.666,1.334,1.316,2.735,1.927,4.189C262.641,24.36,261.991,22.959,261.325,21.625Z" transform="translate(-233.149 -5.419)" fill="#ffca00"/>
          <path id="Path_634" data-name="Path 634" d="M263.333,46.7c-.192.662-.4,1.308-.6,1.943C262.934,48.008,263.141,47.362,263.333,46.7Z" transform="translate(-231.709 20.269)" fill="#ffca00"/>
          <path id="Path_635" data-name="Path 635" d="M248.579,45.983c-.342-1.875-.634-3.82-.858-5.83C247.946,42.163,248.237,44.109,248.579,45.983Z" transform="translate(-247.085 13.562)" fill="#ffca00"/>
          <path id="Path_636" data-name="Path 636" d="M248.661,45.525c-.144-.634-.281-1.283-.411-1.939C248.38,44.242,248.517,44.892,248.661,45.525Z" transform="translate(-246.543 17.078)" fill="#ffca00"/>
          <path id="Path_637" data-name="Path 637" d="M249.614,48.643c-.207-.636-.409-1.281-.605-1.943C249.205,47.362,249.408,48.008,249.614,48.643Z" transform="translate(-245.766 20.269)" fill="#ffca00"/>
          <path id="Path_638" data-name="Path 638" d="M252.91,20.909c1.709-2.644,3.282-4.745,4.429-6.189C256.192,16.163,254.619,18.265,252.91,20.909Z" transform="translate(-241.769 -12.493)" fill="#ffca00"/>
          <path id="Path_639" data-name="Path 639" d="M252.1,19.749c-.257.443-.5.9-.757,1.358h0C251.593,20.648,251.84,20.192,252.1,19.749Z" transform="translate(-243.378 -7.341)" fill="#ffca00"/>
          <path id="Path_640" data-name="Path 640" d="M258.825,15.847c-1.144-1.445-1.862-2.227-1.862-2.227s-.721.781-1.865,2.227c1.144-1.445,1.865-2.227,1.865-2.227S257.681,14.4,258.825,15.847Z" transform="translate(-239.528 -13.62)" fill="#ffca00"/>
          <path id="Path_641" data-name="Path 641" d="M262.277,23.694c.49,1.164.962,2.367,1.4,3.6C263.239,26.061,262.767,24.858,262.277,23.694Z" transform="translate(-232.174 -3.3)" fill="#ffca00"/>
          <path id="Path_642" data-name="Path 642" d="M251.982,20.42c-.429.792-.852,1.6-1.269,2.439.417-.838.84-1.648,1.269-2.439Z" transform="translate(-244.02 -6.654)" fill="#ffca00"/>
          <path id="Path_643" data-name="Path 643" d="M250.13,26.4a53.873,53.873,0,0,0-2.723,16.483,99.374,99.374,0,0,0,.636,11.359,99.374,99.374,0,0,1-.636-11.359A53.873,53.873,0,0,1,250.13,26.4Z" transform="translate(-247.407 -0.528)" fill="#ffca00"/>
          <path id="Path_644" data-name="Path 644" d="M262.971,25.474c.217.615.433,1.239.634,1.875C263.4,26.713,263.188,26.089,262.971,25.474Z" transform="translate(-231.463 -1.476)" fill="#ffca00"/>
          <path id="Path_645" data-name="Path 645" d="M262.033,52.96H251.692c-.538-.964-1.055-2-1.543-3.105.488,1.1,1,2.142,1.543,3.105h20.682c.539-.964,1.051-2,1.541-3.105-.49,1.1-1,2.142-1.541,3.105Z" transform="translate(-244.598 23.501)" fill="#ffca00"/>
          <path id="Path_646" data-name="Path 646" d="M261.967,22.859c-.417-.838-.84-1.648-1.269-2.439h0C261.127,21.212,261.55,22.021,261.967,22.859Z" transform="translate(-233.791 -6.654)" fill="#ffca00"/>
          <path id="Path_647" data-name="Path 647" d="M266.007,42.883a101.259,101.259,0,0,1-.632,11.359,101.259,101.259,0,0,0,.632-11.359A53.749,53.749,0,0,0,263.284,26.4,53.749,53.749,0,0,1,266.007,42.883Z" transform="translate(-231.142 -0.528)" fill="#ffca00"/>
          <path id="Path_648" data-name="Path 648" d="M261.493,21.818c-.524-.958-1.047-1.883-1.571-2.763.524.881,1.047,1.806,1.571,2.763Z" transform="translate(-234.586 -8.052)" fill="#ffca00"/>
          <path id="Path_649" data-name="Path 649" d="M249.137,47.253c-.184-.672-.366-1.362-.534-2.067C248.771,45.891,248.953,46.581,249.137,47.253Z" transform="translate(-246.182 18.718)" fill="#ffca00"/>
          <path id="Path_650" data-name="Path 650" d="M248.757,45.844c-.1-.427-.2-.862-.3-1.3C248.552,44.981,248.653,45.417,248.757,45.844Z" transform="translate(-246.335 18.06)" fill="#ffca00"/>
          <path id="Path_651" data-name="Path 651" d="M264.842,83.115V20.42h-9.472c-.429.792-.852,1.6-1.269,2.439-.666,1.334-1.316,2.735-1.927,4.189q-.741,1.746-1.4,3.6c-.223.615-.433,1.239-.64,1.875a53.873,53.873,0,0,0-2.723,16.483,99.374,99.374,0,0,0,.636,11.359c.225,2.01.516,3.956.858,5.83q.1.565.213,1.12c.13.656.267,1.306.411,1.939.1.437.2.873.3,1.3.168.7.35,1.395.534,2.067.1.338.192.674.287,1,.2.662.4,1.308.605,1.943s.425,1.245.65,1.848q.5,1.351,1.053,2.6c.488,1.1,1,2.142,1.543,3.105Z" transform="translate(-247.407 -6.654)" fill="#fff"/>
          <path id="Path_652" data-name="Path 652" d="M260.812,27.386V13.62s-.721.781-1.865,2.227-2.721,3.545-4.43,6.189c-.395.611-.8,1.251-1.2,1.913-.136.223-.273.449-.407.674q-.41.683-.814,1.4c-.257.443-.5.9-.757,1.358Z" transform="translate(-243.378 -13.62)" fill="#f7a902"/>
          <path id="Path_653" data-name="Path 653" d="M263.705,45.186q-.255,1.057-.536,2.067Q263.451,46.245,263.705,45.186Z" transform="translate(-231.26 18.718)" fill="#fea311"/>
          <path id="Path_654" data-name="Path 654" d="M264.149,43.586c-.221,1.105-.457,2.19-.715,3.239C263.691,45.776,263.928,44.691,264.149,43.586Z" transform="translate(-230.988 17.078)" fill="#fea311"/>
          <path id="Path_655" data-name="Path 655" d="M270.727,32.526c-.2-.636-.417-1.259-.634-1.875-.443-1.237-.915-2.439-1.4-3.6-.611-1.454-1.261-2.854-1.927-4.189-.417-.838-.84-1.648-1.269-2.439h-9.472V83.115H266.36c.539-.964,1.051-2,1.541-3.105.611-1.383,1.18-2.871,1.7-4.444.2-.636.411-1.281.6-1.943.1-.324.192-.66.285-1q.282-1.008.536-2.067c.257-1.049.494-2.134.715-3.239.071-.37.14-.743.211-1.12.342-1.875.634-3.82.862-5.83a101.252,101.252,0,0,0,.632-11.359A53.749,53.749,0,0,0,270.727,32.526Z" transform="translate(-238.585 -6.654)" fill="#e0e0e0"/>
          <path id="Path_656" data-name="Path 656" d="M256.019,27.386h9.472c-.524-.958-1.047-1.883-1.571-2.763-.138-.225-.275-.451-.407-.674-.409-.662-.812-1.3-1.2-1.913-1.709-2.644-3.28-4.745-4.432-6.189s-1.862-2.227-1.862-2.227Z" transform="translate(-238.585 -13.62)" fill="#eca203"/>
        </g>
        <g id="Group_429" data-name="Group 429" transform="translate(14.056 74.097)">
          <path id="Path_657" data-name="Path 657" d="M250.314,50.221c.391.828.792,1.62,1.209,2.365h10.341V50.221Z" transform="translate(-250.314 -50.221)" fill="#ffca00"/>
          <path id="Path_658" data-name="Path 658" d="M267.566,50.221H256.019v2.365H266.36C266.777,51.841,267.178,51.049,267.566,50.221Z" transform="translate(-244.47 -50.221)" fill="#fa0"/>
        </g>
        <g id="Group_430" data-name="Group 430" transform="translate(13.194 76.301)">
          <path id="Path_659" data-name="Path 659" d="M251.959,51.31l-2.071,5.262H262.3V51.31Z" transform="translate(-249.888 -51.31)" fill="#f7a902"/>
          <path id="Path_660" data-name="Path 660" d="M266.359,51.31H256.02v5.262h12.412Z" transform="translate(-243.607 -51.31)" fill="#f7a902"/>
        </g>
        <g id="Group_435" data-name="Group 435" transform="translate(14.084 26.713)">
          <g id="Group_431" data-name="Group 431">
            <path id="Path_661" data-name="Path 661" d="M256.019,26.815V49.851a11.518,11.518,0,1,0,0-23.036Z" transform="translate(-244.498 -26.815)" fill="#fff"/>
            <path id="Path_662" data-name="Path 662" d="M250.328,38.332a11.518,11.518,0,0,0,11.521,11.519V26.815A11.519,11.519,0,0,0,250.328,38.332Z" transform="translate(-250.328 -26.815)" fill="#e0e0e0"/>
          </g>
          <g id="Group_434" data-name="Group 434" transform="translate(1.838 1.834)">
            <g id="Group_432" data-name="Group 432">
              <path id="Path_663" data-name="Path 663" d="M260.919,27.721a9.681,9.681,0,0,0-9.683,9.683h9.683Z" transform="translate(-251.236 -27.721)" fill="#00447d"/>
              <path id="Path_664" data-name="Path 664" d="M251.236,32.5h0a9.681,9.681,0,0,0,9.683,9.683V32.5Z" transform="translate(-251.236 -22.821)" fill="#003766"/>
            </g>
            <g id="Group_433" data-name="Group 433" transform="translate(9.683)">
              <path id="Path_665" data-name="Path 665" d="M256.019,27.721V37.4H265.7A9.686,9.686,0,0,0,256.019,27.721Z" transform="translate(-256.019 -27.721)" fill="#003766"/>
              <path id="Path_666" data-name="Path 666" d="M256.019,32.5v9.683A9.686,9.686,0,0,0,265.7,32.5h-9.685Z" transform="translate(-256.019 -22.821)" fill="#00447d"/>
            </g>
          </g>
          <path id="Path_667" data-name="Path 667" d="M255.066,32.981a1.26,1.26,0,0,1-1.263,1.263h0a1.259,1.259,0,0,1-1.259-1.263v-1.8a1.261,1.261,0,0,1,1.259-1.265h0a1.261,1.261,0,0,1,1.263,1.265Z" transform="translate(-248.058 -23.64)" fill="#fff"/>
        </g>
      </g>
      <g id="Group_438" data-name="Group 438" transform="translate(330.631 32.668)">
        <g id="Group_437" data-name="Group 437" transform="translate(8.472)">
          <path id="Path_668" data-name="Path 668" d="M297.266,23.029a6.987,6.987,0,0,0-6.986,6.984V87.287a6.99,6.99,0,0,0,6.986,6.988h19.769V23.029Z" transform="translate(-290.28 -23.029)" fill="#fff"/>
          <path id="Path_669" data-name="Path 669" d="M323.267,23.029H303.5V94.275h19.771a6.994,6.994,0,0,0,6.988-6.988V30.013A6.99,6.99,0,0,0,323.267,23.029Z" transform="translate(-276.741 -23.029)" fill="#f0f0f0"/>
        </g>
        <path id="Path_670" data-name="Path 670" d="M290.309,55.214a6.988,6.988,0,0,0,6.928,6.09h39.539a6.99,6.99,0,0,0,6.93-6.09Z" transform="translate(-281.778 9.943)" fill="#fff"/>
        <path id="Path_671" data-name="Path 671" d="M326.549,23.029H293.025a6.986,6.986,0,0,0-6.93,6.087h48.062a6.981,6.981,0,0,1,6.928-6.087Z" transform="translate(-286.095 -23.029)" fill="#e0e0e0"/>
        <path id="Path_672" data-name="Path 672" d="M308.117,61.3H341.65a6.985,6.985,0,0,0,6.922-6.09H300.514a6.991,6.991,0,0,1-6.93,6.09Z" transform="translate(-278.423 9.943)" fill="#e0e0e0"/>
        <rect id="Rectangle_195" data-name="Rectangle 195" width="44.154" height="5.834" transform="translate(13.152 28.136)" fill="#2d4375"/>
        <rect id="Rectangle_196" data-name="Rectangle 196" width="44.154" height="5.838" transform="translate(13.152 17.999)" fill="#2d4375"/>
        <rect id="Rectangle_197" data-name="Rectangle 197" width="44.154" height="5.838" transform="translate(13.152 38.269)" fill="#2d4375"/>
      </g>
      <g id="Group_444" data-name="Group 444" transform="translate(256.927 58.53)">
        <g id="Group_443" data-name="Group 443">
          <g id="Group_441" data-name="Group 441" transform="translate(8.954)">
            <path id="Path_673" data-name="Path 673" d="M361.006,96.932a4.823,4.823,0,0,1-4.812,4.8H258.921a4.818,4.818,0,0,1-4.81-4.8V40.6a4.818,4.818,0,0,1,4.81-4.8h97.272a4.822,4.822,0,0,1,4.812,4.8Z" transform="translate(-254.111 -35.804)" fill="#343049"/>
            <g id="Group_439" data-name="Group 439">
              <path id="Path_674" data-name="Path 674" d="M258.921,35.8a4.818,4.818,0,0,0-4.81,4.8V96.932a4.818,4.818,0,0,0,4.81,4.8h49.16V35.8Z" transform="translate(-254.111 -35.804)" fill="#1e2d4f"/>
              <path id="Path_675" data-name="Path 675" d="M328.883,35.8H280.77v65.932h48.113a4.823,4.823,0,0,0,4.812-4.8V40.6A4.822,4.822,0,0,0,328.883,35.8Z" transform="translate(-226.8 -35.804)" fill="#2d4375"/>
            </g>
            <g id="Group_440" data-name="Group 440" transform="translate(3.863 4.29)">
              <path id="Path_676" data-name="Path 676" d="M258.9,37.923a2.9,2.9,0,0,0-2.883,2.895V92.385a2.885,2.885,0,0,0,2.883,2.883h47.224V37.923Z" transform="translate(-256.019 -37.923)" fill="#62c3ed"/>
              <path id="Path_677" data-name="Path 677" d="M326.95,37.923H280.77V95.267h46.18a2.9,2.9,0,0,0,2.887-2.883V40.818A2.912,2.912,0,0,0,326.95,37.923Z" transform="translate(-230.663 -37.923)" fill="#2a9ed1"/>
            </g>
          </g>
          <g id="Group_442" data-name="Group 442" transform="translate(0 65.932)">
            <path id="Path_678" data-name="Path 678" d="M280.77,68.372v9.8h53.212a8.667,8.667,0,0,0,8.665-8.665V68.372Z" transform="translate(-217.846 -68.372)" fill="#1e2d4f"/>
            <path id="Path_679" data-name="Path 679" d="M249.688,68.372v1.136a8.666,8.666,0,0,0,8.663,8.665h54.261v-9.8Z" transform="translate(-249.688 -68.372)" fill="#2d4375"/>
          </g>
        </g>
      </g>
      <g id="Group_454" data-name="Group 454" transform="translate(310.893 38.774)">
        <g id="Group_445" data-name="Group 445" transform="translate(0.409 18.526)">
          <rect id="Rectangle_198" data-name="Rectangle 198" width="8.55" height="1.23" fill="#1e2d4f"/>
          <rect id="Rectangle_199" data-name="Rectangle 199" width="8.547" height="1.23" transform="translate(8.55)" fill="#2d4375"/>
        </g>
        <g id="Group_446" data-name="Group 446" transform="translate(1.911 6.325)">
          <path id="Path_680" data-name="Path 680" d="M280.771,29.17v12.2h7.044Z" transform="translate(-273.723 -29.17)" fill="#1e2d4f"/>
          <path id="Path_681" data-name="Path 681" d="M277.289,41.37h7.048V29.17Z" transform="translate(-277.289 -29.17)" fill="#2d4375"/>
        </g>
        <g id="Group_447" data-name="Group 447">
          <path id="Path_682" data-name="Path 682" d="M289.726,35a8.954,8.954,0,0,0-8.956-8.956V43.961A8.958,8.958,0,0,0,289.726,35Z" transform="translate(-271.812 -26.045)" fill="#fff"/>
          <path id="Path_683" data-name="Path 683" d="M285.3,43.961V26.045a8.958,8.958,0,0,0,0,17.916Z" transform="translate(-276.345 -26.045)" fill="#e1edf7"/>
        </g>
        <g id="Group_448" data-name="Group 448" transform="translate(0.441 0.441)">
          <path id="Path_684" data-name="Path 684" d="M276.563,34.778a8.518,8.518,0,0,0,8.517,8.517V26.263A8.516,8.516,0,0,0,276.563,34.778Z" transform="translate(-276.563 -26.263)" fill="#fff"/>
          <path id="Path_685" data-name="Path 685" d="M280.77,26.263V43.295a8.516,8.516,0,0,0,0-17.032Z" transform="translate(-272.253 -26.263)" fill="#e1edf7"/>
        </g>
        <g id="Group_449" data-name="Group 449" transform="translate(2.664 2.664)">
          <path id="Path_686" data-name="Path 686" d="M287.064,33.653a6.3,6.3,0,0,0-6.294-6.292v12.59A6.3,6.3,0,0,0,287.064,33.653Z" transform="translate(-274.476 -27.361)" fill="#fff"/>
          <path id="Path_687" data-name="Path 687" d="M283.955,39.951V27.361a6.3,6.3,0,0,0,0,12.59Z" transform="translate(-277.661 -27.361)" fill="#e1edf7"/>
        </g>
        <g id="Group_453" data-name="Group 453" transform="translate(3.561 3.561)">
          <g id="Group_452" data-name="Group 452">
            <g id="Group_450" data-name="Group 450">
              <path id="Path_688" data-name="Path 688" d="M278.1,33.2a5.4,5.4,0,0,0,5.4,5.4V27.8A5.4,5.4,0,0,0,278.1,33.2Z" transform="translate(-278.104 -27.804)" fill="#62c3ed"/>
            </g>
            <g id="Group_451" data-name="Group 451" transform="translate(5.397)">
              <path id="Path_689" data-name="Path 689" d="M280.77,27.8v10.79a5.4,5.4,0,1,0,0-10.79Z" transform="translate(-280.77 -27.804)" fill="#2a9ed1"/>
            </g>
          </g>
        </g>
      </g>
      <rect id="Rectangle_200" data-name="Rectangle 200" width="153.414" height="7.881" transform="translate(242.622 134.263)" fill="#fff"/>
      <rect id="Rectangle_201" data-name="Rectangle 201" width="153.414" height="3.939" transform="translate(242.622 138.206)" fill="#e0e0e0"/>
      <g id="Group_455" data-name="Group 455" transform="translate(280.045 66.521)">
        <rect id="Rectangle_202" data-name="Rectangle 202" width="39.807" height="49.668" fill="#fff"/>
        <rect id="Rectangle_203" data-name="Rectangle 203" width="39.799" height="49.668" transform="translate(39.807)" fill="#e0e0e0"/>
      </g>
      <g id="Group_456" data-name="Group 456" transform="translate(280.045 66.521)">
        <rect id="Rectangle_204" data-name="Rectangle 204" width="39.807" height="6.942" fill="#2d4375"/>
        <rect id="Rectangle_205" data-name="Rectangle 205" width="39.799" height="6.942" transform="translate(39.807)" fill="#1e2d4f"/>
      </g>
      <g id="Group_457" data-name="Group 457" transform="translate(296.46 80.319)">
        <path id="Path_690" data-name="Path 690" d="M269.216,54.507l12.9-4.472v5.849l-6.367,1.48,6.367,1.822v5.849l-12.9-4.678Z" transform="translate(-269.216 -43.014)" fill="#f7a902"/>
        <path id="Path_691" data-name="Path 691" d="M285.921,46.567h6.849L283.1,75.537h-6.843Z" transform="translate(-262.006 -46.567)" fill="#f7a902"/>
        <path id="Path_692" data-name="Path 692" d="M285.073,59.185l6.371-1.822-6.371-1.48V50.035l12.906,4.472v5.849l-12.906,4.678Z" transform="translate(-252.971 -43.014)" fill="#f7a902"/>
      </g>
      <g id="Group_459" data-name="Group 459" transform="translate(373.478 110.332)">
        <path id="Path_693" data-name="Path 693" d="M320.727,63.083a8.543,8.543,0,1,0,8.543,8.543A8.542,8.542,0,0,0,320.727,63.083Zm0,14.505a5.963,5.963,0,1,1,5.964-5.962A5.959,5.959,0,0,1,320.727,77.588Z" transform="translate(-302.215 -59.66)" fill="#eca203"/>
        <g id="Group_458" data-name="Group 458">
          <rect id="Rectangle_206" data-name="Rectangle 206" width="9.256" height="23.932" fill="#f7a902"/>
          <rect id="Rectangle_207" data-name="Rectangle 207" width="9.256" height="23.932" transform="translate(9.256)" fill="#eca203"/>
        </g>
      </g>
    </g>
  </g>
</svg>
